<?xml version="1.0" ?><svg viewBox="0 0 36 36" xmlns="http://www.w3.org/2000/svg"><defs><style>.cls-1{fill:#d6dbe1;}.cls-2{fill:#322f56;}.cls-3{fill:#66f;}</style></defs><title/><g id="partying"><path class="cls-1" d="M6,18a14.42,14.42,0,0,1,.32-3A1.73,1.73,0,0,1,6,15a2,2,0,0,1-.49-.06,2,2,0,0,1-1.43-1.37L3.9,13A14.82,14.82,0,0,0,3,18,15,15,0,0,0,18,33a14.76,14.76,0,0,0,1.5-.08A15,15,0,0,1,6,18Z"/><path class="cls-2" d="M18,2a15.79,15.79,0,0,0-6.59,1.44l2.16.64a2,2,0,0,1,.74.43,14.06,14.06,0,1,1-9.8,9.8,2,2,0,0,1-.43-.74l-.64-2.16A15.79,15.79,0,0,0,2,18,16,16,0,1,0,18,2Z"/><path class="cls-2" d="M26.18,21H25a1,1,0,0,0,0,2h1.18a.82.82,0,0,1,.82.82.81.81,0,0,1-.29.63.86.86,0,0,1-.68.18L17.25,23v-.16a3.74,3.74,0,0,0-2.07-3,1,1,0,1,0-.89,1.79,1.76,1.76,0,0,1,.27,3l-.42.32a1,1,0,0,0,.6,1.8,1,1,0,0,0,.6-.2l.42-.32A3.81,3.81,0,0,0,16.82,25h0l8.86,1.61a2.07,2.07,0,0,0,.5.05,2.82,2.82,0,0,0,0-5.64Z"/><path class="cls-3" d="M10,16a.93.93,0,0,1-.45-.11,1,1,0,0,1-.44-1.34A3.76,3.76,0,0,1,15.48,14l.32.42a1,1,0,0,1-1.6,1.2l-.32-.42a1.71,1.71,0,0,0-1.57-.7,1.74,1.74,0,0,0-1.42,1A1,1,0,0,1,10,16Z"/><path class="cls-3" d="M26,16a1,1,0,0,1-.89-.55,1.74,1.74,0,0,0-1.42-1,1.69,1.69,0,0,0-1.57.7l-.32.42a1,1,0,0,1-1.6-1.2l.32-.42a3.76,3.76,0,0,1,6.37.57,1,1,0,0,1-.44,1.34A.93.93,0,0,1,26,16Z"/><polygon class="cls-1" points="5.2 3.66 3 3 6 13 7.54 11.46 5.2 3.66"/><path class="cls-2" d="M6,14l-.24,0A1,1,0,0,1,5,13.29l-3-10A1,1,0,0,1,3.29,2l10,3a1,1,0,0,1,.68.72,1,1,0,0,1-.26,1l-7,7A1,1,0,0,1,6,14ZM4.49,4.49l2,6.62,4.63-4.63Z"/><path class="cls-3" d="M30,5a1,1,0,0,1-.38-.08,1.15,1.15,0,0,1-.33-.21,1,1,0,0,1-.21-1.09,1.15,1.15,0,0,1,.21-.33,1,1,0,0,1,1.41,0A1,1,0,0,1,31,4a1,1,0,0,1-.3.71A1,1,0,0,1,30,5Z"/><path class="cls-3" d="M14,10a1,1,0,0,1-.38-.08.9.9,0,0,1-.54-.54.94.94,0,0,1,0-.76,1,1,0,0,1,.21-.33,1,1,0,0,1,1.42,0,1,1,0,0,1,.21.33.94.94,0,0,1,0,.76,1.15,1.15,0,0,1-.21.33A1,1,0,0,1,14,10Z"/><path class="cls-3" d="M4,31a1,1,0,0,1-.38-.07,1.46,1.46,0,0,1-.33-.22,1,1,0,0,1-.21-1.09,1,1,0,0,1,.21-.33,1,1,0,0,1,.33-.21,1,1,0,0,1,1.09.21,1,1,0,0,1,.21.33,1,1,0,0,1-.21,1.09,1.46,1.46,0,0,1-.33.22A1,1,0,0,1,4,31Z"/></g></svg>